<svg xmlns="http://www.w3.org/2000/svg" width="20" height="20" viewBox="0 0 20 20">
    <defs>
        <style>
            .cls-1{fill:#fff}
        </style>
    </defs>
    <path id="icoAdd1" d="M9.262 14.3v-3.519H5.746a.781.781 0 0 1 0-1.563h3.516V5.664a.781.781 0 1 1 1.562 0v3.554h3.516a.781.781 0 0 1 0 1.563h-3.516V14.3a.781.781 0 0 1-1.563 0zm9.957-.586A.781.781 0 0 0 20 12.93v-9.8A3.129 3.129 0 0 0 16.875 0H3.125A3.129 3.129 0 0 0 0 3.125v13.75A3.129 3.129 0 0 0 3.125 20h13.75A3.129 3.129 0 0 0 20 16.875a.781.781 0 0 0-1.562 0 1.564 1.564 0 0 1-1.562 1.563H3.125a1.564 1.564 0 0 1-1.562-1.562V3.125a1.564 1.564 0 0 1 1.562-1.562h13.75a1.564 1.564 0 0 1 1.563 1.563v9.8a.781.781 0 0 0 .781.785z" class="cls-1"/>
</svg>
