<svg xmlns="http://www.w3.org/2000/svg" width="16" height="16" viewBox="0 0 16 16">
    <defs>
        <style>
            .cls-1{fill:#9799a3}
        </style>
    </defs>
    <path id="_1621607" d="M11.161 5.661L8.868 7.953l2.292 2.292a.625.625 0 1 1-.884.884L7.984 8.837l-2.292 2.292a.625.625 0 0 1-.884-.884L7.1 7.953 4.808 5.661a.625.625 0 0 1 .884-.884l2.292 2.292 2.292-2.292a.625.625 0 0 1 .884.884zm2.5-3.318A8 8 0 0 0 2.343 13.657a8 8 0 0 0 9.8 1.19.625.625 0 1 0-.648-1.069 6.809 6.809 0 1 1 2.114-2.031.625.625 0 1 0 1.039.695 7.981 7.981 0 0 0-.988-10.1zm0 0" class="cls-1" data-name="1621607"/>
</svg>
