<svg xmlns="http://www.w3.org/2000/svg" width="16.102" height="18" viewBox="0 0 16.102 18">
    <defs>
        <style>
            .cls-1{fill:#127cd8}
        </style>
    </defs>
    <path id="icoAddfile" d="M11.355 8.508a4.746 4.746 0 1 0 4.745 4.746 4.752 4.752 0 0 0-4.745-4.746zm0 8.086a3.34 3.34 0 1 1 3.34-3.34 3.344 3.344 0 0 1-3.34 3.34zm2.109-3.34a.7.7 0 0 1-.7.7h-.7v.7a.7.7 0 1 1-1.406 0v-.7h-.7a.7.7 0 0 1 0-1.406h.7v-.7a.7.7 0 1 1 1.406 0v.7h.7a.7.7 0 0 1 .701.706zM6.328 17.3a.7.7 0 0 1-.7.7H2.813A2.816 2.816 0 0 1 0 15.188V5.093a2.733 2.733 0 0 1 .8-1.936L3.119.814A2.768 2.768 0 0 1 5.072 0h6.385a2.816 2.816 0 0 1 2.813 2.813v3.726a.7.7 0 0 1-1.406 0V2.813a1.408 1.408 0 0 0-1.406-1.406H5.072a1.352 1.352 0 0 0-.954.4L1.8 4.147a1.341 1.341 0 0 0-.269.389H3.48A1.056 1.056 0 0 0 4.535 3.48a.7.7 0 0 1 1.406 0A2.464 2.464 0 0 1 3.48 5.941H1.406v9.246a1.408 1.408 0 0 0 1.406 1.406h2.813a.7.7 0 0 1 .703.707zm0 0" class="cls-1"/>
</svg>
