<svg xmlns="http://www.w3.org/2000/svg" width="18" height="18" viewBox="0 0 18 18">
    <defs>
        <style>
            .cls-1{fill:#127cd8}
        </style>
    </defs>
    <path id="icoCSet" d="M9.352 18h-.7a2.112 2.112 0 0 1-2.109-2.109v-.354a.235.235 0 0 0-.149-.215l-.013-.005a.236.236 0 0 0-.259.046l-.25.25a2.109 2.109 0 0 1-2.983 0l-.5-.5a2.109 2.109 0 0 1 0-2.983l.25-.25a.236.236 0 0 0 .046-.259l-.005-.013a.235.235 0 0 0-.215-.149h-.356A2.112 2.112 0 0 1 0 9.352v-.7a2.112 2.112 0 0 1 2.109-2.113h.354a.235.235 0 0 0 .215-.149l.005-.013a.236.236 0 0 0-.046-.259l-.25-.25a2.109 2.109 0 0 1 0-2.983l.5-.5a2.109 2.109 0 0 1 2.983 0l.25.25a.236.236 0 0 0 .259.046l.013-.005a.235.235 0 0 0 .149-.215v-.352A2.112 2.112 0 0 1 8.648 0h.7a2.112 2.112 0 0 1 2.109 2.109v.354a.235.235 0 0 0 .149.215l.013.005a.236.236 0 0 0 .259-.046l.25-.25a2.109 2.109 0 0 1 2.983 0l.5.5a2.109 2.109 0 0 1 0 2.983l-.25.25a.236.236 0 0 0-.046.259l.005.013a.235.235 0 0 0 .215.149h.354A2.112 2.112 0 0 1 18 8.648v.7a2.108 2.108 0 0 1-1.583 2.043.7.7 0 1 1-.351-1.362.7.7 0 0 0 .527-.681v-.7a.7.7 0 0 0-.7-.7h-.354a1.637 1.637 0 0 1-1.515-1.019l-.005-.013a1.636 1.636 0 0 1 .351-1.79l.25-.25a.7.7 0 0 0 0-.994l-.5-.5a.7.7 0 0 0-.994 0l-.25.25a1.638 1.638 0 0 1-1.792.35h-.01a1.637 1.637 0 0 1-1.019-1.515v-.358a.7.7 0 0 0-.7-.7h-.7a.7.7 0 0 0-.7.7v.354a1.637 1.637 0 0 1-1.029 1.515h-.01a1.637 1.637 0 0 1-1.792-.35l-.25-.25a.7.7 0 0 0-.994 0l-.5.5a.7.7 0 0 0 0 .994l.25.25a1.637 1.637 0 0 1 .35 1.792v.01a1.637 1.637 0 0 1-1.516 1.021h-.355a.7.7 0 0 0-.7.7v.7a.7.7 0 0 0 .7.7h.354a1.637 1.637 0 0 1 1.515 1.019v.01a1.637 1.637 0 0 1-.35 1.792l-.25.25a.7.7 0 0 0 0 .994l.5.5a.7.7 0 0 0 .994 0l.25-.25a1.638 1.638 0 0 1 1.792-.35h.01a1.637 1.637 0 0 1 1.019 1.515v.354a.7.7 0 0 0 .7.7h.7a.7.7 0 0 0 .671-.492.7.7 0 1 1 1.342.421A2.1 2.1 0 0 1 9.352 18zm8.046-.638a2.057 2.057 0 0 0 0-2.909l-4.559-4.54a3.638 3.638 0 0 0 .345-1.413 3.341 3.341 0 0 0-1.015-2.408 4.757 4.757 0 0 0-3.315-1.3h-.009A3.737 3.737 0 0 0 7.624 5a.7.7 0 0 0-.277 1.158L9.04 7.886l-.212.914-.9.2-1.717-1.721a.7.7 0 0 0-1.163.27 3.906 3.906 0 0 0-.226 1.261 4.92 4.92 0 0 0 .9 2.875 3.428 3.428 0 0 0 2.8 1.463h.006a3.84 3.84 0 0 0 1.415-.321l4.542 4.535a2.057 2.057 0 0 0 2.909 0zm-7.736-5.975a2.363 2.363 0 0 1-1.133.355 2.045 2.045 0 0 1-1.673-.891 3.362 3.362 0 0 1-.594-1.531l.948.95a.7.7 0 0 0 .653.189l1.706-.387a.7.7 0 0 0 .529-.527l.4-1.717a.7.7 0 0 0-.183-.651l-.926-.945a3.2 3.2 0 0 1 1.785.849 1.938 1.938 0 0 1 .6 1.412 2.389 2.389 0 0 1-.385 1.127.7.7 0 0 0 .073.91l4.938 4.918a.651.651 0 1 1-.921.92l-4.914-4.906a.7.7 0 0 0-.906-.074z" class="cls-1"/>
</svg>
