<svg xmlns="http://www.w3.org/2000/svg" width="18" height="18.002" viewBox="0 0 18 18.002">
    <defs>
        <style>
            .cls-1{fill:#127cd8}
        </style>
    </defs>
    <path id="icoCustType" d="M16.391 11.32a2.1 2.1 0 0 0-.7.12l-1.9-2.358a5.555 5.555 0 1 0-8.591-.02l-1.9 2.375a2.109 2.109 0 1 0-.691 4.1.7.7 0 0 0 0-1.406.7.7 0 1 1 .7-.7.7.7 0 1 0 1.406 0 2.1 2.1 0 0 0-.32-1.115l1.82-2.281a5.524 5.524 0 0 0 2.585 1.03V13.9a2.109 2.109 0 0 0 .7 4.1.7.7 0 1 0 0-1.406.7.7 0 1 1 .7-.7.7.7 0 1 0 1.406 0A2.113 2.113 0 0 0 10.2 13.9v-2.835a5.525 5.525 0 0 0 2.557-1.016l1.843 2.275a2.108 2.108 0 0 0 1.8 3.215.7.7 0 1 0 0-1.406.7.7 0 1 1 .7-.7.7.7 0 1 0 1.406 0 2.112 2.112 0 0 0-2.115-2.113zM9.5 9.7a4.123 4.123 0 0 1-2.109-.578v-.378a.515.515 0 0 1 .168-.385A2.851 2.851 0 0 1 9.5 7.644a2.85 2.85 0 0 1 1.941.716.515.515 0 0 1 .168.385v.381A4.123 4.123 0 0 1 9.5 9.7zm0-3.479a.914.914 0 1 1 .914-.914.915.915 0 0 1-.914.917zm0-4.818a4.146 4.146 0 0 1 3.36 6.579 1.9 1.9 0 0 0-.482-.674 4.2 4.2 0 0 0-.988-.658 2.32 2.32 0 1 0-3.78 0 4.2 4.2 0 0 0-.988.658 1.9 1.9 0 0 0-.461.626l-.038.023A4.147 4.147 0 0 1 9.5 1.406zm0 0" class="cls-1" transform="translate(-.5)"/>
</svg>
