<svg xmlns="http://www.w3.org/2000/svg" width="18" height="18.003" viewBox="0 0 18 18.003">
    <defs>
        <style>
            .cls-1{fill:#127cd8}
        </style>
    </defs>
    <path id="icoInvalid" d="M10.927 7.221A2.124 2.124 0 0 1 9.471 10.8H7.976l1.98 4.161A2.12 2.12 0 0 1 8.052 18a2.133 2.133 0 0 1-1.923-1.2v-.008L4.273 12.8l-.53 1.059a.706.706 0 0 1-.058.1 1.9 1.9 0 0 1-1.525.742h-.012a2.111 2.111 0 0 1-1.468-.634 2.182 2.182 0 0 1-.637-1.547V6.965a.7.7 0 1 1 1.406 0v5.555a.765.765 0 0 0 .708.773.55.55 0 0 0 .359-.13l1.149-2.294a.7.7 0 0 1 1.266.019L7.4 16.2a.72.72 0 0 0 .946.337.717.717 0 0 0 .344-.964L6.228 10.4a.7.7 0 0 1 .635-1.005H9.43a.7.7 0 0 0 .611-.441.709.709 0 0 0-.121-.754L2.6 1.57a.7.7 0 0 0-1.149.544V3.45a.7.7 0 0 1-1.406 0V2.114A2.089 2.089 0 0 1 1.264.2a2.089 2.089 0 0 1 2.249.3l.018.016 7.356 6.664q.021.02.04.041zm7.116-3.348a3.865 3.865 0 0 1-6.624 2.709l-.026-.024a.713.713 0 0 1-.051-.057 3.866 3.866 0 1 1 6.7-2.627zm-6.328 0a2.445 2.445 0 0 0 .263 1.1l3.3-3.3a2.459 2.459 0 0 0-3.566 2.2zm4.922 0a2.445 2.445 0 0 0-.337-1.232L12.943 6a2.459 2.459 0 0 0 3.694-2.129z" class="cls-1" transform="translate(-.043 -.001)"/>
</svg>
