<svg xmlns="http://www.w3.org/2000/svg" width="15.046" height="3.748" viewBox="0 0 15.046 3.748">
    <defs>
        <style>
            .cls-1{fill:#9799a3}
        </style>
    </defs>
    <g id="icoMoreo" transform="translate(-1 -146.811)">
        <g id="Group_6943" data-name="Group 6943" transform="translate(1 146.811)">
            <g id="Group_6940" data-name="Group 6940">
                <path id="Path_4287" d="M1.876 150.559a1.874 1.874 0 1 1 1.876-1.874 1.877 1.877 0 0 1-1.876 1.874z" class="cls-1" data-name="Path 4287" transform="translate(0 -146.811)"/>
            </g>
            <g id="Group_6941" data-name="Group 6941" transform="translate(5.655)">
                <path id="Path_4288" d="M146.37 150.559a1.874 1.874 0 1 1 1.87-1.874 1.874 1.874 0 0 1-1.87 1.874z" class="cls-1" data-name="Path 4288" transform="translate(-144.5 -146.811)"/>
            </g>
            <g id="Group_6942" data-name="Group 6942" transform="translate(11.304)">
                <path id="Path_4289" d="M295.481 150.559a1.874 1.874 0 1 1 1.871-1.874 1.874 1.874 0 0 1-1.871 1.874z" class="cls-1" data-name="Path 4289" transform="translate(-293.61 -146.811)"/>
            </g>
        </g>
    </g>
</svg>
