<svg xmlns="http://www.w3.org/2000/svg" width="18" height="16.982" viewBox="0 0 18 16.982">
    <defs>
        <style>
            .cls-1{fill:#127cd8}
        </style>
    </defs>
    <path id="icoMSend" d="M15.545 2.814h-.358A2.816 2.816 0 0 0 12.375 0H2.813A2.816 2.816 0 0 0 0 2.813V8.4a2.816 2.816 0 0 0 2.813 2.812v.753a2.453 2.453 0 0 0 2.455 2.446H7.98a.7.7 0 1 0 0-1.406H5.267a1.045 1.045 0 0 1-1.049-1.04V5.951l4.893 3.027a2.448 2.448 0 0 0 2.59 0l4.892-3.027v3.508a.7.7 0 0 0 1.406 0V5.26a2.453 2.453 0 0 0-2.454-2.446zM1.406 8.4V2.813a1.408 1.408 0 0 1 1.407-1.407h9.563a1.408 1.408 0 0 1 1.406 1.406H5.267A2.453 2.453 0 0 0 2.813 5.26v4.55A1.408 1.408 0 0 1 1.406 8.4zm9.555-.622a1.063 1.063 0 0 1-1.11 0L4.55 4.5a1.049 1.049 0 0 1 .717-.282h10.278a1.049 1.049 0 0 1 .717.282zm6.423 4.436a2.126 2.126 0 0 1 0 2.989l-1.558 1.567a.7.7 0 0 1-1-.991l1.359-1.368h-5.4a.7.7 0 0 1 0-1.406h5.4l-1.359-1.368a.7.7 0 0 1 1-.991zm0 0" class="cls-1"/>
</svg>
