<svg xmlns="http://www.w3.org/2000/svg" width="7.996" height="9.138" viewBox="0 0 7.996 9.138">
    <defs>
        <style>
            .cls-1{fill:#141823}
        </style>
    </defs>
    <g id="icoSortd" transform="translate(-31.99)">
        <g id="Group_6947" data-name="Group 6947" transform="translate(31.99 5.087)">
            <g id="Group_6946" data-name="Group 6946">
                <path id="Path_4292" d="M39.881 285.12a.357.357 0 0 0-.5 0l-3.136 3.129a.357.357 0 0 1-.505 0l-3.14-3.13a.357.357 0 0 0-.5.505l3.136 3.128a1.072 1.072 0 0 0 1.514 0l3.136-3.128a.357.357 0 0 0-.005-.504z" class="cls-1" data-name="Path 4292" transform="translate(-31.99 -285.015)"/>
            </g>
        </g>
        <g id="Group_6949" data-name="Group 6949" transform="translate(35.631)">
            <g id="Group_6948" data-name="Group 6948">
                <path id="Path_4293" d="M236.356 0a.357.357 0 0 0-.356.357v6.461a.357.357 0 0 0 .714 0V.357a.357.357 0 0 0-.358-.357z" class="cls-1" data-name="Path 4293" transform="translate(-235.999)"/>
            </g>
        </g>
    </g>
</svg>
