<?xml version="1.0" encoding="utf-8"?>
<!-- Generator: Adobe Illustrator 24.0.2, SVG Export Plug-In . SVG Version: 6.00 Build 0)  -->
<svg version="1.1" id="Layer_1" xmlns="http://www.w3.org/2000/svg" xmlns:xlink="http://www.w3.org/1999/xlink" x="0px" y="0px"
	 viewBox="0 0 19.4 18.9" style="enable-background:new 0 0 19.4 18.9;" xml:space="preserve">
<style type="text/css">
	.st0{fill:#FFFFFF;}
	.st1{display:none;}
	.st2{display:inline;fill:#939598;}
</style>
<g>
	<path class="st0" d="M-517.9,112.3c0,17.6-2.5,28.6-10.2,36.9c-6.9,7-18.4,9.9-26,9.9l-1.5-11.1c22.3-1.5,23.8-15.4,23.8-41.7V28.2
		h13.9V112.3z M-524.9,12.1c-5.5,0-9-4.4-9-9.5c0-5.2,3.9-9.4,9.4-9.4c5.4,0,8.9,4.2,8.9,9.4C-515.7,8.3-519.4,12.1-524.9,12.1z"/>
	<path class="st0" d="M-424.9,73.1c0,34-22.4,48.4-42.7,48.4c-23.5,0-41.5-17.6-41.5-47.1c0-31.2,19.4-48.4,42.7-48.4
		C-441.5,26-424.9,45.1-424.9,73.1z M-466.9,36.9c-19.8,0-28,19.4-28,37c0,20.3,11.2,36.7,27.6,36.7c16.6,0,28.1-16.4,28.1-37
		C-439.1,57.4-447,36.9-466.9,36.9z"/>
	<path class="st0" d="M-397.9,43c5.7-10.6,16.1-16.9,30.3-16.9c21.6,0,36.9,18.6,36.9,46.7c0,33.2-20.3,48.7-39.2,48.7
		c-13.2,0-22.9-5.4-29.5-17.1h-0.5l-0.8,15.1h-12.1c0.3-6,0.7-15.2,0.7-22.6V-14.5h13.9V43H-397.9z M-398.3,83.8
		c0,13.6,10.2,26.3,25.6,26.3c17.8,0,27.6-15.2,27.6-36.9c0-19.1-9.4-35.8-27.1-35.8c-15.9,0-26.1,14.9-26.1,28.3V83.8z"/>
	<path class="st0" d="M-287.7,119.5h-24.8v-75h-12.4V26.2h12.4v-4.5c0-21.4,14.9-38.7,44.4-38.7c8.9,0,19.4,2.2,24.6,5.4l-4.7,18.8
		c-4.5-2.3-11.4-4.4-19.4-4.4c-20.3,0-20.3,14.2-20.3,23.5h52.6v93.3h-24.8v-75h-27.6V119.5z"/>
	<path class="st0" d="M-188,119.5h-24.8V-15.2h24.8V119.5z"/>
	<path class="st0" d="M-95.4,115.8c-7.7,3.4-18.6,5.4-30.2,5.4c-28.8,0-45.2-18.1-45.2-47.1c0-26.8,15.4-49.9,42.7-49.9
		c22.6,0,37.4,16.1,37.4,46.2c0,3.7-0.2,7.2-0.7,9.9h-55.8c0.7,15.9,12.1,22.3,25.5,22.3c9.2,0,16.4-1.7,22.8-3.9L-95.4,115.8z
		 M-113.7,63.1c0.2-9.7-3.7-21.6-15.9-21.6c-11.9,0-16.9,12.4-17.6,21.6H-113.7z"/>
	<path class="st0" d="M-9.5,26.2v15.6l-29,41.5C-42.7,89-47,94.5-51.1,99.2v0.3h42.5v19.9H-81v-14.7l30-42.6
		c4.2-5.7,8.2-10.7,12.2-15.6V46h-39V26.1h68.3V26.2z"/>
</g>
<g class="st1">
	<path class="st2" d="M3.4,7.4H0.9V6.5h6v0.9H4.4v7.2H3.3L3.4,7.4L3.4,7.4z"/>
	<path class="st2" d="M14.7,11c-0.1-1.1-0.1-2.5-0.1-3.5l0,0c-0.3,0.9-0.6,2-1,3.1l-1.4,3.9h-0.9L10,10.7C9.6,9.6,9.3,8.5,9.1,7.6
		l0,0c0,1-0.1,2.4-0.2,3.6l-0.2,3.5h-1l0.6-8.1h1.3l1.4,3.9c0.3,1,0.6,1.9,0.8,2.7l0,0c0.2-0.8,0.5-1.7,0.9-2.7l1.4-3.9h1.3l0.5,8.1
		h-1L14.7,11z"/>
</g>
<g>
	<path class="st0" d="M19.4,9.4c0,5.3-4.2,9.5-9.7,9.5C4.3,18.9,0,14.7,0,9.4C0,4.2,4.3,0,9.7,0C15.2-0.1,19.4,4.1,19.4,9.4z
		 M2.5,9.4c0,4.2,3.1,7.5,7.4,7.5c4.1,0,7.2-3.3,7.2-7.5s-3-7.6-7.2-7.6S2.5,5.2,2.5,9.4z M8.3,14.3H6.1V4.9C7,4.7,8.2,4.6,9.7,4.6
		c1.8,0,2.6,0.3,3.3,0.7c0.5,0.4,0.9,1.1,0.9,2.1s-0.8,1.8-2,2.2v0.1c0.9,0.3,1.4,1,1.7,2.3c0.3,1.4,0.5,2,0.7,2.4h-2.4
		c-0.3-0.3-0.5-1.2-0.7-2.3c-0.2-1-0.7-1.5-2-1.5h-1v3.7H8.3z M8.3,9h1c1.2,0,2.2-0.4,2.2-1.4c0-0.9-0.6-1.4-2-1.4
		c-0.6,0-1,0.1-1.2,0.1V9z"/>
</g>
</svg>
