<svg xmlns="http://www.w3.org/2000/svg" width="16.547" height="20" viewBox="0 0 16.547 20">
    <defs>
        <style>
            .cls-1{fill:#fff}
        </style>
    </defs>
    <g id="icoNot" transform="translate(-44.197)">
        <g id="Group_6906" data-name="Group 6906" transform="translate(44.197)">
            <path id="Path_4279" d="M60.7 14.879a.781.781 0 0 0-1.536.288.782.782 0 0 1-.768.927H46.541a.782.782 0 0 1-.768-.927 8.062 8.062 0 0 1 1.1-2.712 6.179 6.179 0 0 0 1.062-3.314V7.969A4.549 4.549 0 0 1 52.4 3.438h.148a4.541 4.541 0 0 1 4.45 4.531v1.172a5.528 5.528 0 0 0 .785 2.794.781.781 0 1 0 1.374-.744 3.978 3.978 0 0 1-.6-2.05V7.969a6.1 6.1 0 0 0-5.312-6.046V.781a.781.781 0 0 0-1.562 0v1.144a6.122 6.122 0 0 0-5.312 6.043v1.173a4.71 4.71 0 0 1-.856 2.539 9.494 9.494 0 0 0-1.276 3.2 2.344 2.344 0 0 0 2.3 2.777h3.593a2.344 2.344 0 1 0 4.687 0H58.4a2.344 2.344 0 0 0 2.3-2.777zm-8.226 3.558a.782.782 0 0 1-.781-.781h1.563a.782.782 0 0 1-.778.781z" class="cls-1" data-name="Path 4279" transform="translate(-44.197)"/>
        </g>
    </g>
</svg>
