<svg xmlns="http://www.w3.org/2000/svg" width="20" height="20" viewBox="0 0 20 20">
    <defs>
        <style>
            .cls-1{fill:#fff}
        </style>
    </defs>
    <path id="icoSearch" d="M12.578 0a7.418 7.418 0 0 0-5.769 12.086L5.5 13.394a3.654 3.654 0 0 0-2.064.594 18.439 18.439 0 0 0-2.707 1.971l-.022.019L.686 16A2.344 2.344 0 1 0 4 19.314l.035-.037a19.655 19.655 0 0 0 1.989-2.628 3.43 3.43 0 0 0 .632-2.2l1.257-1.257a7.419 7.419 0 0 0 7.764.976.781.781 0 0 0-.653-1.419 5.858 5.858 0 1 1 2.647-2.428.781.781 0 0 0 1.357.774A7.424 7.424 0 0 0 12.578 0zm-9.7 18.224a.781.781 0 0 1-1.107-1.1 17.759 17.759 0 0 1 2.142-1.6 4.175 4.175 0 0 1 1.187-.56 10.349 10.349 0 0 1-2.219 3.26zm0 0" class="cls-1"/>
</svg>
